<?xml version="1.0" encoding="UTF-8" standalone="no"?>
<svg
   xmlns:dc="http://purl.org/dc/elements/1.1/"
   xmlns:cc="http://creativecommons.org/ns#"
   xmlns:rdf="http://www.w3.org/1999/02/22-rdf-syntax-ns#"
   xmlns:svg="http://www.w3.org/2000/svg"
   xmlns="http://www.w3.org/2000/svg"
   viewBox="0 0 820.08801 530.64532"
   height="530.64532"
   width="820.08801"
   xml:space="preserve"
   id="svg2"
   version="1.1"><metadata
     id="metadata8"><rdf:RDF><cc:Work
         rdf:about=""><dc:format>image/svg+xml</dc:format><dc:type
           rdf:resource="http://purl.org/dc/dcmitype/StillImage" /></cc:Work></rdf:RDF></metadata><defs
     id="defs6"><clipPath
       id="clipPath18"
       clipPathUnits="userSpaceOnUse"><path
         id="path16"
         d="M 0,397.984 H 615.066 V 0 H 0 Z" /></clipPath></defs><g
     transform="matrix(1.3333333,0,0,-1.3333333,0,530.64533)"
     id="g10"><g
       id="g12"><g
         clip-path="url(#clipPath18)"
         id="g14"><g
           transform="translate(197.8691,364.1374)"
           id="g20"><path
             id="path22"
             style="fill:#000000;fill-opacity:1;fill-rule:nonzero;stroke:none"
             d="m 0,0 c 0.152,5.465 3.795,9.129 9.304,9.193 5.509,0.065 8.513,-4.399 9.082,-9.513 0.569,-5.116 3.83,-9.576 9.229,-9.456 5.398,0.12 6.93,4.978 4.634,9.741 -2.296,4.764 -1.318,9.796 4.046,11.724 5.364,1.928 10.284,-0.544 12.244,-5.498 1.96,-4.954 -0.211,-10.134 -4.629,-12.914 -4.418,-2.779 -6.417,-6.56 -6.44,-12.04 -0.023,-5.481 -3.955,-9.514 -9.414,-9.518 -5.459,-0.003 -9.284,-1.653 -11.901,-6.293 -2.618,-4.643 -7.502,-6.665 -12.57,-4.831 -5.068,1.832 -7.375,6.606 -5.728,11.905 1.647,5.301 6.756,6.447 11.456,4.527 4.701,-1.92 9.673,-0.881 9.732,4.569 0.06,5.449 -4.536,8.572 -9.621,9.143 C 4.338,-8.688 -0.151,-5.464 0,0" /></g><g
           transform="translate(360.2139,231.6168)"
           id="g24"><path
             id="path26"
             style="fill:#000000;fill-opacity:1;fill-rule:nonzero;stroke:none"
             d="m 0,0 c -0.152,-5.465 -3.796,-9.129 -9.305,-9.193 -5.508,-0.065 -8.512,4.4 -9.082,9.513 -0.568,5.116 -3.83,9.576 -9.228,9.457 -5.399,-0.12 -6.931,-4.979 -4.634,-9.742 2.296,-4.763 1.317,-9.796 -4.047,-11.723 -5.363,-1.929 -10.283,0.543 -12.243,5.498 -1.96,4.953 0.211,10.133 4.629,12.913 4.418,2.779 6.417,6.56 6.439,12.041 0.024,5.48 3.955,9.514 9.414,9.517 5.46,0.003 9.284,1.653 11.902,6.293 2.618,4.643 7.502,6.666 12.569,4.832 C 1.483,37.573 3.79,32.799 2.143,27.5 0.495,22.199 -4.613,21.053 -9.314,22.973 c -4.701,1.92 -9.672,0.882 -9.732,-4.569 -0.059,-5.449 4.537,-8.571 9.622,-9.143 C -4.339,8.688 0.151,5.465 0,0" /></g><g
           transform="translate(359.8701,342.2086)"
           id="g28"><path
             id="path30"
             style="fill:#000000;fill-opacity:1;fill-rule:nonzero;stroke:none"
             d="m 0,0 c -4.731,0 -8.595,3.796 -8.595,8.595 0,4.731 3.864,8.594 8.595,8.594 4.731,0 8.594,-3.863 8.594,-8.594 C 8.594,3.796 4.731,0 0,0 m 56.977,-1.592 c -4.72,5.21 -13.748,10.31 -24.18,14.896 -8.694,3.83 -3.529,10.699 -27.409,10.153 -15.953,5.064 -35.246,4.553 -37.851,4.553 -5.845,0 -19.838,-0.056 -25.449,-0.99 -0.657,-0.112 -1.136,-0.179 -1.492,-0.212 0.133,-0.079 -0.222,-0.345 -2.059,-0.991 -5.968,-2.048 -11.701,-4.743 -17.134,-7.949 -1.925,-0.991 -3.74,-2.104 -5.499,-3.328 -4.142,-2.75 -8.049,-5.789 -11.689,-9.062 -2.917,-2.517 -5.611,-5.21 -8.127,-8.127 -3.318,-3.619 -6.368,-7.537 -9.04,-11.69 -1.236,-1.748 -2.416,-3.618 -3.406,-5.488 -3.207,-5.444 -5.845,-11.222 -7.938,-17.189 -1.982,-5.488 -3.451,-11.289 -4.442,-17.177 -0.947,-5.612 -1.47,-11.344 -1.47,-17.189 v -51.556 h 66.229 c 0.812,5.611 1.469,11.344 1.925,17.133 0.412,5.734 0.591,11.456 0.591,17.234 v 17.189 c 0,3.206 0.314,16.45 3.985,19.737 3.671,3.289 22.721,5.589 31.138,7.438 36.304,2.561 49.106,11.344 58.491,11.956 2.617,0.033 17.556,-2.516 24.502,7.704 0.535,0.779 1.08,2.493 1.56,4.542 0.122,0.534 -0.624,1.714 -1.125,1.748 -4.697,0.322 -9.396,0.667 -14.094,1.035 -8.75,0.691 -17.489,1.425 -26.228,2.415 -8.717,0.88 -17.59,2.806 -25.305,7.148 -0.969,0.501 -1.937,1.024 -2.939,1.414 -1.001,0.401 -2.048,0.701 -3.106,0.958 -2.104,0.522 -4.274,0.901 -6.445,0.99 -1.092,0.078 -2.16,-0.044 -3.229,-0.289 -1.069,-0.234 -2.138,-0.49 -3.184,-0.78 -2.104,-0.612 -4.253,-1.168 -6.223,-2.104 1.959,0.991 4.085,1.592 6.167,2.26 1.069,0.313 2.115,0.602 3.185,0.869 1.057,0.267 2.181,0.423 3.294,0.378 2.205,-0.045 4.398,-0.367 6.557,-0.835 1.069,-0.256 2.138,-0.534 3.185,-0.913 1.057,-0.39 2.059,-0.879 3.039,-1.369 7.759,-4.108 16.431,-5.767 25.148,-6.424 8.706,-0.779 17.456,-1.291 26.207,-1.759 4.831,-0.256 9.674,-0.489 14.517,-0.701 0.456,-0.022 1.536,0.835 1.602,1.28 0.468,2.916 0.757,5.633 0.757,6.903 0,2.894 -0.979,3.974 -3.016,6.189" /></g><g
           transform="translate(179.9473,129.3297)"
           id="g32"><path
             id="path34"
             style="fill:#000000;fill-opacity:1;fill-rule:nonzero;stroke:none"
             d="M 0,0 V 0.289 H 30.705 V 0 c -2.36,0 -4.383,-0.844 -6.068,-2.528 -1.687,-1.688 -2.53,-3.71 -2.53,-6.07 V -48.911 L 8.598,-39.52 v 11.199 c -1.735,-3.565 -4.154,-6.985 -7.262,-10.259 -3.106,-3.276 -7.032,-5.985 -11.775,-8.128 -4.745,-2.143 -10.561,-3.215 -17.448,-3.215 -8.334,0 -16.304,1.506 -23.915,4.516 -7.61,3.01 -14.401,7.333 -20.373,12.968 -5.973,5.731 -10.524,12.221 -13.655,19.471 -3.131,7.247 -4.696,14.87 -4.696,22.866 0,7.995 1.565,15.617 4.696,22.867 3.131,7.248 7.682,13.714 13.655,19.397 5.972,5.732 12.703,10.163 20.193,13.294 7.489,3.13 15.521,4.552 24.095,4.263 11.029,-0.483 19.783,-0.531 26.261,-0.145 6.478,0.385 12.463,1.156 17.954,2.313 L 17.99,46.383 h -0.434 c -1.734,2.89 -3.612,5.383 -5.635,7.477 -2.023,2.096 -4.781,4.191 -8.273,6.286 -3.492,2.095 -7.815,3.876 -12.968,5.346 -5.154,1.469 -11.343,2.203 -18.567,2.203 -8.334,0 -15.594,-1.516 -21.783,-4.55 -6.189,-3.036 -11.307,-7.202 -15.353,-12.499 -4.045,-5.3 -7.068,-11.452 -9.066,-18.46 -2,-7.007 -2.999,-14.485 -2.999,-22.432 0,-7.996 0.999,-15.475 2.999,-22.434 1.998,-6.961 5.021,-13.076 9.066,-18.35 4.046,-5.275 9.164,-9.405 15.353,-12.391 6.189,-2.986 13.449,-4.478 21.783,-4.478 8.476,0 15.797,2.069 21.963,6.212 6.164,4.142 11.005,9.921 14.522,17.339 v 15.75 c 0,2.36 -0.844,4.382 -2.529,6.07 C 4.431,-0.844 2.408,0 0,0" /></g><g
           transform="translate(298.6514,107.7819)"
           id="g36"><path
             id="path38"
             style="fill:#000000;fill-opacity:1;fill-rule:nonzero;stroke:none"
             d="m 0,0 -2.038,-23.249 -0.002,-3.201 -75.647,0.053 c 3.202,0.84 6.407,7.24 6.414,17.012 l 0.059,83.902 c 0.006,9.772 -3.19,16.176 -6.39,17.021 L -1.958,91.485 -1.96,88.284 0.045,65.032 c -3.36,12.639 -14.304,23.261 -31.32,23.273 l -24.093,0.016 -0.038,-54.25 15.332,-0.01 c 11.793,-0.009 19.38,6.388 20.224,9.588 L -19.865,21.41 c -0.841,3.202 -8.418,9.61 -20.211,9.618 l -15.332,0.011 -0.038,-54.251 24.093,-0.017 C -14.336,-23.24 -3.378,-12.634 0,0" /></g><g
           transform="translate(401.3418,85.8366)"
           id="g40"><path
             id="path42"
             style="fill:#000000;fill-opacity:1;fill-rule:nonzero;stroke:none"
             d="M 0,0 C 2.937,-2.794 6.26,-4.19 9.97,-4.19 V -4.479 H 4.479 -7.659 c -0.964,0 -1.95,0.096 -2.962,0.289 -3.034,0.626 -5.733,2.095 -8.092,4.407 l -49.417,49.201 -1.517,1.517 12.137,6.286 c 3.565,1.733 6.599,3.238 9.104,4.514 2.504,1.276 4.949,2.54 7.333,3.793 2.385,1.252 4.299,2.288 5.744,3.108 10.017,6.116 16.375,12.956 19.072,20.517 2.698,7.562 2.986,15.654 0.867,24.276 h 13.872 c 0,-7.274 -1.036,-13.572 -3.106,-18.894 -2.072,-5.322 -4.938,-9.873 -8.598,-13.654 -3.661,-3.781 -7.923,-6.996 -12.788,-9.645 -2.264,-1.253 -5.056,-2.734 -8.381,-4.443 -3.323,-1.71 -6.622,-3.408 -9.897,-5.093 -3.276,-1.687 -7.177,-3.662 -11.704,-5.926 z m -70.225,4.479 c 0,-2.409 0.842,-4.456 2.529,-6.14 1.685,-1.688 3.709,-2.529 6.069,-2.529 v -0.289 h -30.705 v 0.289 c 2.407,0 4.454,0.841 6.141,2.529 1.685,1.684 2.528,3.731 2.528,6.14 v 100.063 c 0,2.359 -0.843,4.383 -2.528,6.069 -1.687,1.685 -3.734,2.529 -6.141,2.529 v 0.289 h 30.705 v -0.289 c -2.36,0 -4.384,-0.844 -6.069,-2.529 -1.687,-1.686 -2.529,-3.71 -2.529,-6.069 z" /></g><g
           transform="translate(423.1094,132.7096)"
           id="g44"><path
             id="path46"
             style="fill:#000000;fill-opacity:1;fill-rule:nonzero;stroke:none"
             d="m 0,0 c 1.569,-8.868 3.956,-16.559 7.155,-23.066 3.199,-6.512 6.929,-11.871 11.197,-16.079 4.263,-4.209 8.865,-7.354 13.805,-9.429 4.939,-2.078 9.876,-3.114 14.817,-3.114 6.061,0 11.84,1.457 17.341,4.376 5.498,2.918 10.158,7.211 13.975,12.881 3.814,5.666 6.508,12.654 8.081,20.961 1.571,8.306 1.402,17.847 -0.505,28.623 -1.573,8.866 -3.985,16.555 -7.239,23.066 -3.258,6.509 -6.987,11.896 -11.196,16.163 -4.21,4.265 -8.785,7.435 -13.723,9.514 -4.94,2.075 -9.878,3.114 -14.815,3.114 -6.062,0 -11.845,-1.489 -17.342,-4.462 C 16.05,59.572 11.391,55.25 7.575,49.584 3.759,43.914 1.064,36.928 -0.506,28.622 -2.079,20.314 -1.911,10.775 0,0 m 102.535,7.576 c 0,-10.215 -1.713,-19.168 -5.136,-26.854 -3.425,-7.69 -7.913,-14.088 -13.469,-19.195 -5.556,-5.108 -11.927,-8.952 -19.11,-11.532 -7.184,-2.581 -14.479,-3.873 -21.887,-3.873 -7.409,0 -14.705,1.292 -21.887,3.873 -7.186,2.58 -13.555,6.424 -19.11,11.532 -5.557,5.107 -10.047,11.505 -13.47,19.195 -3.425,7.686 -5.136,16.639 -5.136,26.854 0,10.325 1.711,19.305 5.136,26.939 3.423,7.631 7.913,14.03 13.47,19.194 5.555,5.161 11.924,9.008 19.11,11.533 7.182,2.526 14.478,3.788 21.887,3.788 7.408,0 14.703,-1.262 21.887,-3.788 7.183,-2.525 13.554,-6.372 19.11,-11.533 5.556,-5.164 10.044,-11.563 13.469,-19.194 3.423,-7.634 5.136,-16.614 5.136,-26.939" /></g><g
           transform="translate(126.6147,22.1862)"
           id="g48"><path
             id="path50"
             style="fill:#000000;fill-opacity:1;fill-rule:nonzero;stroke:none"
             d="M 0,0 H -2.179 V 34.596 L -17.423,0 h -2.348 L -35.072,34.596 V 0 h -2.121 v 39.553 h 2.235 l 16.334,-36.99 16.331,36.99 H 0 Z" /></g><g
           transform="translate(164.7798,58.8346)"
           id="g52"><path
             id="path54"
             style="fill:#000000;fill-opacity:1;fill-rule:nonzero;stroke:none"
             d="M 0,0 -8.021,-20.917 H 8.081 Z m -8.823,-23.027 -5.275,-13.621 h -2.29 L -1.144,2.904 h 2.348 l 15.244,-39.552 h -2.29 l -5.275,13.621 z" /></g><g
           transform="translate(229.5947,50.7975)"
           id="g56"><path
             id="path58"
             style="fill:#000000;fill-opacity:1;fill-rule:nonzero;stroke:none"
             d="M 0,0 C 0,5.585 -3.494,8.835 -9.683,8.835 H -24.297 V -8.892 H -9.454 C -4.755,-8.892 0,-6.098 0,0 m 0.975,-28.611 h -2.119 v 10.029 c 0,6.271 -4.586,7.638 -8.424,7.638 h -14.729 v -17.667 h -2.121 V 10.941 H -9.683 C -2.348,10.941 2.179,6.726 2.179,0 c 0,-4.732 -2.577,-8.321 -6.648,-9.918 3.497,-1.311 5.444,-4.273 5.444,-8.664 z" /></g><g
           transform="translate(258.0195,36.8336)"
           id="g60"><path
             id="path62"
             style="fill:#000000;fill-opacity:1;fill-rule:nonzero;stroke:none"
             d="M 0,0 V -14.647 H -2.119 V 24.905 H 0 v -22 l 21.777,22 h 2.981 L 9.628,9.688 27.223,-14.647 H 24.586 L 8.138,8.151 Z" /></g><g
           transform="translate(308.6221,43.9586)"
           id="g64"><path
             id="path66"
             style="fill:#000000;fill-opacity:1;fill-rule:nonzero;stroke:none"
             d="M 0,0 H 21.72 V -2.053 H 0 v -17.613 h 24.242 v -2.106 H -2.119 V 17.78 H 24.242 V 15.674 L 0,15.674 Z" /></g><g
           transform="translate(368.1084,59.6325)"
           id="g68"><path
             id="path70"
             style="fill:#000000;fill-opacity:1;fill-rule:nonzero;stroke:none"
             d="M 0,0 V -37.446 H -2.121 V 0 h -13.353 v 2.106 h 28.883 l 0,-2.106 z" /></g><path
           id="path72"
           style="fill:#000000;fill-opacity:1;fill-rule:nonzero;stroke:none"
           d="m 405.757,22.186 h -2.118 v 39.553 h 2.118 z" /><g
           transform="translate(463.4092,22.1862)"
           id="g74"><path
             id="path76"
             style="fill:#000000;fill-opacity:1;fill-rule:nonzero;stroke:none"
             d="M 0,0 H -2.405 L -28.998,36.363 V 0 h -2.118 v 39.553 h 2.405 L -2.119,3.19 V 39.553 H 0 Z" /></g><g
           transform="translate(525.6445,22.1862)"
           id="g78"><path
             id="path80"
             style="fill:#000000;fill-opacity:1;fill-rule:nonzero;stroke:none"
             d="m 0,0 h -2.121 v 10.771 c -2.864,-7.068 -9.11,-11.456 -17.134,-11.456 -10.833,0 -19.656,9.235 -19.656,20.632 0,11.341 8.823,20.575 19.656,20.575 8.826,0 15.646,-4.958 18.452,-13.165 h -2.291 c -2.636,6.896 -8.539,11.056 -16.161,11.056 -9.685,0 -17.537,-8.319 -17.537,-18.466 0,-10.259 7.852,-18.522 17.537,-18.522 9.4,0 16.219,6.84 17.076,16.755 h -16.675 v 2.11 L 0,20.29 Z" /></g></g></g></g></svg>