<svg xmlns="http://www.w3.org/2000/svg" width="511" height="358" viewBox="0 0 511 358"><defs><clipPath id="cp1" clipPathUnits="userSpaceOnUse"><path d="M-154-86h819.17v530.06H-154z"/></clipPath></defs><style>.s0{fill:#6b2d7c}</style><g id="Clip-Path" clip-path="url(#cp1)"><path d="M6.89 28.76c.35-12.39 8.61-20.7 21.1-20.85 12.5-.14 19.31 9.98 20.6 21.58s8.69 21.72 20.93 21.44c12.24-.27 15.71-11.29 10.51-22.09-5.21-10.8-2.99-22.21 9.17-26.59 12.17-4.37 23.33 1.24 27.77 12.47 4.44 11.24-.48 22.98-10.5 29.29-10.02 6.3-14.55 14.88-14.6 27.3-.05 12.43-8.97 21.58-21.35 21.59-12.38 0-21.05 3.75-26.99 14.27-5.94 10.53-17.01 15.11-28.51 10.96C3.53 113.97-1.7 103.14 2.04 91.12c3.73-12.01 15.32-14.61 25.97-10.26 10.66 4.35 21.94 2 22.08-10.36.13-12.36-10.29-19.44-21.82-20.74-11.54-1.3-21.72-8.61-21.38-21M375.06 329.29c-.35 12.39-8.61 20.7-21.1 20.85s-19.31-9.98-20.6-21.57c-1.29-11.6-8.68-21.72-20.93-21.45-12.24.27-15.71 11.29-10.5 22.09 5.2 10.8 2.98 22.22-9.18 26.59-12.17 4.37-23.32-1.24-27.77-12.47-4.44-11.23.48-22.98 10.5-29.28 10.02-6.31 14.55-14.88 14.6-27.31.06-12.43 8.97-21.58 21.35-21.59 12.38 0 21.06-3.74 26.99-14.27 5.94-10.52 17.01-15.11 28.51-10.95 11.49 4.15 16.72 14.98 12.99 27-3.74 12.02-15.32 14.62-25.98 10.26-10.66-4.35-21.94-2-22.07 10.36-.14 12.36 10.29 19.44 21.82 20.74s21.71 8.61 21.37 21" class="s0"/><path d="M503.49 82.1c-10.7-11.82-31.18-23.38-54.83-33.78-19.72-8.69-8.01-24.26-62.16-23.02-36.18-11.49-79.93-10.33-85.84-10.33-13.26 0-44.99.12-57.71 2.25-1.49.25-2.58.4-3.39.48.31.17-.5.78-4.67 2.24-13.53 4.65-26.53 10.76-38.85 18.03-4.37 2.25-8.48 4.77-12.47 7.55q-3.5 2.32-6.91 4.77t-6.72 5.02q-3.32 2.57-6.54 5.26t-6.34 5.5q-2.47 2.13-4.86 4.35t-4.7 4.52q-2.31 2.31-4.52 4.7-2.22 2.39-4.35 4.86c-7.53 8.2-14.44 17.09-20.5 26.51-2.81 3.96-5.48 8.2-7.73 12.44-7.27 12.35-13.25 25.45-18 38.98-4.49 12.45-7.83 25.61-10.07 38.96-2.15 12.73-3.34 25.73-3.34 38.98v116.92h150.2q.7-4.84 1.32-9.69.63-4.84 1.18-9.7.54-4.86 1.01-9.73.47-4.86.85-9.74c.94-13 1.34-25.97 1.34-39.08v-38.98c0-7.27.72-37.3 9.04-44.76 8.33-7.46 51.53-12.67 70.61-16.87 82.34-5.8 111.37-25.72 132.65-27.11 5.93-.08 39.82 5.71 55.57-17.47 1.21-1.77 2.45-5.66 3.53-10.3.28-1.21-1.41-3.89-2.55-3.97q-15.98-1.09-31.96-2.34c-19.84-1.57-39.66-3.24-59.48-5.48-19.77-2-39.89-6.36-57.38-16.21-2.2-1.14-4.4-2.32-6.67-3.21-2.27-.91-4.65-1.59-7.04-2.17-4.78-1.18-9.7-2.04-14.62-2.25-2.48-.17-4.9.11-7.32.66q-.91.2-1.82.41-.9.21-1.81.43-.9.22-1.8.45t-1.8.48c-4.77 1.39-9.64 2.65-14.11 4.77 4.45-2.25 9.27-3.61 13.99-5.12 2.42-.71 4.8-1.37 7.22-1.97 2.4-.61 4.95-.96 7.47-.86 5 .1 9.98.83 14.87 1.89 2.43.58 4.85 1.21 7.23 2.07 2.39.88 4.66 2 6.89 3.11 17.59 9.31 37.26 13.07 57.03 14.57 19.74 1.76 39.59 2.92 59.43 3.98q16.44.87 32.92 1.59c1.04.05 3.49-1.89 3.64-2.9 1.06-6.61 1.71-12.77 1.71-15.65 0-6.57-2.22-9.02-6.84-14.04m-129.21-3.61c-10.73 0-19.49-8.61-19.49-19.49 0-10.73 8.76-19.49 19.49-19.49s19.49 8.76 19.49 19.49c.01 2.56-.49 5.1-1.47 7.47-.98 2.36-2.41 4.52-4.22 6.33a19.6 19.6 0 0 1-6.33 4.22c-2.37.98-4.91 1.48-7.47 1.47" class="s0"/></g></svg>