<svg version="1.2" xmlns="http://www.w3.org/2000/svg" viewBox="0 0 511 358" width="511" height="358">
	<defs>
		<clipPath clipPathUnits="userSpaceOnUse" id="cp1">
			<path d="m-154-86h819.17v530.06h-819.17z"/>
		</clipPath>
	</defs>
	<style>
		.s0 { fill: #6b2d7c } 
	</style>
	<g id="Clip-Path" clip-path="url(#cp1)">
		<g>
			<path class="s0" d="m6.89 28.76c0.35-12.39 8.61-20.7 21.1-20.85 12.5-0.14 19.31 9.98 20.6 21.58 1.29 11.6 8.69 21.72 20.93 21.44 12.24-0.27 15.71-11.29 10.51-22.09-5.21-10.8-2.99-22.21 9.17-26.59 12.17-4.37 23.33 1.24 27.77 12.47 4.44 11.24-0.48 22.98-10.5 29.29-10.02 6.3-14.55 14.88-14.6 27.3-0.05 12.43-8.97 21.58-21.35 21.59-12.38 0-21.05 3.75-26.99 14.27-5.94 10.53-17.01 15.11-28.51 10.96-11.49-4.16-16.72-14.99-12.98-27.01 3.73-12.01 15.32-14.61 25.97-10.26 10.66 4.35 21.94 2 22.08-10.36 0.13-12.36-10.29-19.44-21.82-20.74-11.54-1.3-21.72-8.61-21.38-21z"/>
			<path class="s0" d="m375.06 329.29c-0.35 12.39-8.61 20.7-21.1 20.85-12.49 0.15-19.31-9.98-20.6-21.57-1.29-11.6-8.68-21.72-20.93-21.45-12.24 0.27-15.71 11.29-10.5 22.09 5.2 10.8 2.98 22.22-9.18 26.59-12.17 4.37-23.32-1.24-27.77-12.47-4.44-11.23 0.48-22.98 10.5-29.28 10.02-6.31 14.55-14.88 14.6-27.31 0.06-12.43 8.97-21.58 21.35-21.59 12.38 0 21.06-3.74 26.99-14.27 5.94-10.52 17.01-15.11 28.51-10.95 11.49 4.15 16.72 14.98 12.99 27-3.74 12.02-15.32 14.62-25.98 10.26-10.66-4.35-21.94-2-22.07 10.36-0.14 12.36 10.29 19.44 21.82 20.74 11.53 1.3 21.71 8.61 21.37 21z"/>
			<path class="s0" d="m503.49 82.1c-10.7-11.82-31.18-23.38-54.83-33.78-19.72-8.69-8.01-24.26-62.16-23.02-36.18-11.49-79.93-10.33-85.84-10.33-13.26 0-44.99 0.12-57.71 2.25-1.49 0.25-2.58 0.4-3.39 0.48 0.31 0.17-0.5 0.78-4.67 2.24-13.53 4.65-26.53 10.76-38.85 18.03-4.37 2.25-8.48 4.77-12.47 7.55q-3.5 2.32-6.91 4.77-3.41 2.45-6.72 5.02-3.32 2.57-6.54 5.26-3.22 2.69-6.34 5.5-2.47 2.13-4.86 4.35-2.39 2.22-4.7 4.52-2.31 2.31-4.52 4.7-2.22 2.39-4.35 4.86c-7.53 8.2-14.44 17.09-20.5 26.51-2.81 3.96-5.48 8.2-7.73 12.44-7.27 12.35-13.25 25.45-18 38.98-4.49 12.45-7.83 25.61-10.07 38.96-2.15 12.73-3.34 25.73-3.34 38.98v116.92h150.2q0.7-4.84 1.32-9.69 0.63-4.84 1.18-9.7 0.54-4.86 1.01-9.73 0.47-4.86 0.85-9.74c0.94-13 1.34-25.97 1.34-39.08v-38.98c0-7.27 0.72-37.3 9.04-44.76 8.33-7.46 51.53-12.67 70.61-16.87 82.34-5.8 111.37-25.72 132.65-27.11 5.93-0.08 39.82 5.71 55.57-17.47 1.21-1.77 2.45-5.66 3.53-10.3 0.28-1.21-1.41-3.89-2.55-3.97q-15.98-1.09-31.96-2.34c-19.84-1.57-39.66-3.24-59.48-5.48-19.77-2-39.89-6.36-57.38-16.21-2.2-1.14-4.4-2.32-6.67-3.21-2.27-0.91-4.65-1.59-7.04-2.17-4.78-1.18-9.7-2.04-14.62-2.25-2.48-0.17-4.9 0.11-7.32 0.66q-0.91 0.2-1.82 0.41-0.9 0.21-1.81 0.43-0.9 0.22-1.8 0.45-0.9 0.23-1.8 0.48c-4.77 1.39-9.64 2.65-14.11 4.77 4.45-2.25 9.27-3.61 13.99-5.12 2.42-0.71 4.8-1.37 7.22-1.97 2.4-0.61 4.95-0.96 7.47-0.86 5 0.1 9.98 0.83 14.87 1.89 2.43 0.58 4.85 1.21 7.23 2.07 2.39 0.88 4.66 2 6.89 3.11 17.59 9.31 37.26 13.07 57.03 14.57 19.74 1.76 39.59 2.92 59.43 3.98q16.44 0.87 32.92 1.59c1.04 0.05 3.49-1.89 3.64-2.9 1.06-6.61 1.71-12.77 1.71-15.65 0-6.57-2.22-9.02-6.84-14.04zm-129.21-3.61c-10.73 0-19.49-8.61-19.49-19.49 0-10.73 8.76-19.49 19.49-19.49 10.73 0 19.49 8.76 19.49 19.49 0.01 2.56-0.49 5.1-1.47 7.47-0.98 2.36-2.41 4.52-4.22 6.33-1.81 1.81-3.97 3.24-6.33 4.22-2.37 0.98-4.91 1.48-7.47 1.47z"/>
		</g>
	</g>
</svg>