<svg version="1.2" xmlns="http://www.w3.org/2000/svg" viewBox="0 0 735 189" width="735" height="189">
	<defs>
		<clipPath clipPathUnits="userSpaceOnUse" id="cp1">
			<path d="m-42-170h819.18v530.06h-819.18z"/>
		</clipPath>
	</defs>
	<style>
		.s0 { fill: #ffffff } 
	</style>
	<g id="g10">
		<g id="g12">
			<g id="Clip-Path: g14" clip-path="url(#cp1)">
				<g id="g14">
					<g id="g20">
						<path id="path22" class="s0" d="m468.99 15.15c0.19-6.55 4.55-10.94 11.15-11.02 6.6-0.07 10.2 5.27 10.88 11.4 0.68 6.13 4.59 11.47 11.05 11.33 6.47-0.14 8.31-5.97 5.56-11.67-2.75-5.71-1.58-11.74 4.84-14.05 6.43-2.31 12.32 0.66 14.67 6.59 2.35 5.94-0.25 12.14-5.54 15.47-5.3 3.33-7.69 7.86-7.72 14.43-0.03 6.56-4.74 11.39-11.28 11.4-6.54 0-11.12 1.98-14.25 7.54-3.14 5.56-8.99 7.98-15.06 5.79-6.07-2.2-8.84-7.92-6.86-14.27 1.97-6.35 8.09-7.72 13.72-5.42 5.63 2.3 11.59 1.06 11.66-5.47 0.07-6.53-5.44-10.27-11.53-10.96-6.09-0.68-11.47-4.55-11.29-11.09z"/>
					</g>
					<g id="g24">
						<path id="path26" class="s0" d="m663.48 173.9c-0.18 6.55-4.55 10.94-11.15 11.02-6.6 0.08-10.19-5.27-10.88-11.4-0.68-6.13-4.58-11.47-11.05-11.33-6.47 0.15-8.3 5.97-5.55 11.67 2.75 5.71 1.57 11.74-4.85 14.05-6.43 2.31-12.32-0.65-14.67-6.59-2.35-5.93 0.25-12.14 5.55-15.47 5.29-3.33 7.68-7.86 7.71-14.42 0.03-6.57 4.74-11.4 11.28-11.4 6.54-0.01 11.12-1.99 14.26-7.54 3.13-5.56 8.98-7.99 15.05-5.79 6.08 2.19 8.84 7.91 6.87 14.26-1.98 6.35-8.1 7.72-13.73 5.42-5.63-2.3-11.59-1.05-11.66 5.48-0.07 6.53 5.44 10.27 11.53 10.95 6.09 0.69 11.47 4.55 11.29 11.09z"/>
					</g>
					<g id="g28">
						<path id="path30" class="s0" d="m731.32 43.32c-5.65-6.24-16.46-12.35-28.96-17.84-10.42-4.59-4.23-12.82-32.84-12.16-19.11-6.07-42.22-5.46-45.34-5.46-7 0-23.77 0.07-30.49 1.19-0.79 0.13-1.36 0.21-1.79 0.25 0.16 0.1-0.26 0.42-2.46 1.19-7.15 2.45-14.02 5.68-20.53 9.52-2.31 1.19-4.48 2.52-6.59 3.99-4.96 3.29-9.64 6.93-14 10.86-3.5 3.01-6.72 6.24-9.74 9.73-3.97 4.34-7.63 9.03-10.83 14.01-1.48 2.09-2.89 4.33-4.08 6.57-3.84 6.52-7 13.44-9.51 20.59-2.37 6.58-4.13 13.53-5.32 20.58-1.13 6.72-1.76 13.59-1.76 20.59v61.77h79.34c0.98-6.73 1.76-13.6 2.31-20.53 0.49-6.87 0.71-13.72 0.71-20.65v-20.59c0-3.84 0.37-19.7 4.77-23.64 4.4-3.94 27.22-6.7 37.3-8.91 43.49-3.07 58.83-13.59 70.07-14.33 3.14-0.04 21.04 3.02 29.36-9.22 0.64-0.94 1.29-2.99 1.87-5.45 0.14-0.64-0.75-2.05-1.35-2.09q-8.44-0.58-16.88-1.24c-10.49-0.83-20.96-1.71-31.43-2.89-10.44-1.06-21.07-3.37-30.31-8.57-1.16-0.6-2.32-1.22-3.52-1.69-1.2-0.48-2.46-0.84-3.72-1.15-2.52-0.62-5.12-1.08-7.72-1.18-1.31-0.1-2.59 0.05-3.87 0.34q-1.93 0.42-3.82 0.94c-2.52 0.73-5.09 1.4-7.45 2.52 2.34-1.19 4.89-1.91 7.39-2.71q1.9-0.56 3.81-1.04c1.27-0.32 2.62-0.51 3.95-0.45 2.64 0.05 5.27 0.44 7.85 1 1.28 0.3 2.56 0.63 3.82 1.09 1.26 0.47 2.46 1.05 3.64 1.64 9.29 4.92 19.68 6.91 30.13 7.7 10.43 0.93 20.91 1.54 31.39 2.1q8.69 0.46 17.39 0.84c0.55 0.03 1.84-1 1.92-1.53 0.56-3.5 0.91-6.75 0.91-8.27 0-3.47-1.17-4.76-3.62-7.42zm-68.25-1.9c-5.67 0-10.3-4.55-10.3-10.3 0-5.67 4.63-10.29 10.3-10.29 5.67 0 10.29 4.62 10.29 10.29 0 5.75-4.62 10.3-10.29 10.3z"/>
					</g>
					<g id="g32">
						<path id="path34" class="s0" d="m92.93 79.29v-0.3h31.44v0.3q-3.63 0-6.21 2.59-2.59 2.59-2.59 6.21v41.28l-13.84-9.62v-11.46q-2.66 5.47-7.43 10.5-4.77 5.03-12.06 8.32-7.29 3.29-17.86 3.3-12.81-0.01-24.49-4.63-11.69-4.62-20.86-13.28-9.18-8.8-13.98-19.93-4.82-11.13-4.81-23.42-0.01-12.28 4.81-23.41 4.8-11.13 13.98-19.86 9.17-8.81 20.67-13.61 11.51-4.81 24.68-4.37 16.93 0.74 26.88 0.15 9.95-0.59 18.39-2.37l1.7 26.11h-0.44q-2.67-4.43-5.77-7.65-3.11-3.22-8.47-6.44-5.37-3.22-13.28-5.47-7.92-2.26-19.01-2.26-12.81 0-22.31 4.66-9.51 4.66-15.72 12.8-6.21 8.14-9.28 18.9-3.07 10.77-3.07 22.97 0 12.28 3.07 22.97 3.07 10.69 9.28 18.79 6.21 8.1 15.72 12.69 9.5 4.58 22.31 4.58 13.01 0.01 22.48-6.36 9.47-6.36 14.87-17.75v-16.13q0-3.62-2.59-6.21-2.51-2.59-6.21-2.59z"/>
					</g>
					<g id="g36">
						<path id="path38" class="s0" d="m214.48 101.35l-2.09 23.81v3.27l-77.46-0.05c3.28-0.86 6.56-7.41 6.57-17.42l0.06-85.91c0-10.01-3.27-16.56-6.55-17.43l77.46 0.06v3.27l2.05 23.81c-3.44-12.94-14.64-23.81-32.07-23.83l-24.67-0.01-0.04 55.54 15.7 0.02c12.08 0 19.85-6.55 20.71-9.82l-0.01 22.77c-0.87-3.28-8.62-9.84-20.7-9.85l-15.7-0.01-0.04 55.55 24.67 0.02c17.43 0.01 28.65-10.85 32.11-23.79z"/>
					</g>
					<g id="g40">
						<path id="path42" class="s0" d="m319.62 123.82q4.51 4.29 10.21 4.29v0.3h-5.62-12.43q-1.48 0-3.03-0.3-4.66-0.96-8.29-4.51l-50.6-50.38-1.55-1.55 12.43-6.44q5.47-2.66 9.32-4.62 3.85-1.96 7.51-3.88 3.66-1.93 5.88-3.19 15.39-9.39 19.53-21.01 4.14-11.61 0.89-24.85h14.2q0 11.17-3.18 19.34-3.18 8.18-8.8 13.99-5.63 5.8-13.1 9.87-3.48 1.93-8.58 4.55-5.1 2.63-10.13 5.21-5.03 2.6-11.99 6.07zm-71.9-4.58q0 3.7 2.59 6.28 2.58 2.59 6.21 2.59v0.3h-31.44v-0.3q3.7 0 6.29-2.59 2.59-2.58 2.59-6.28v-102.46q0-3.63-2.59-6.22-2.59-2.58-6.29-2.58v-0.3h31.44v0.3q-3.63 0-6.21 2.58-2.59 2.59-2.59 6.22z"/>
					</g>
					<g id="g44">
						<path id="path46" class="s0" d="m446.9 68.07q0 15.69-5.26 27.5-5.26 11.81-13.79 19.65-8.53 7.85-19.56 11.81-11.04 3.96-22.42 3.96-11.38 0-22.41-3.96-11.03-3.96-19.57-11.81-8.53-7.84-13.79-19.65-5.26-11.81-5.25-27.5-0.01-15.86 5.25-27.58 5.26-11.73 13.79-19.66 8.54-7.93 19.57-11.81 11.03-3.88 22.41-3.88 11.38 0 22.42 3.88 11.03 3.88 19.56 11.81 8.53 7.93 13.79 19.66 5.26 11.72 5.26 27.58zm-104.99 7.76q2.41 13.62 7.33 23.62 4.91 10 11.46 16.46 6.55 6.46 14.14 9.65 7.58 3.19 15.17 3.19 9.31 0 17.76-4.48 8.44-4.48 14.31-13.19 5.86-8.7 8.27-21.46 2.41-12.76-0.51-29.31-2.42-13.62-7.42-23.62-5-9.99-11.46-16.55-6.47-6.55-14.05-9.74-7.59-3.19-15.17-3.19-9.31 0-17.76 4.57-8.45 4.57-14.31 13.28-5.86 8.7-8.28 21.46-2.41 12.76 0.52 29.31z"/>
					</g>
					<g id="g48">
						<path id="path50" class="s0" d="m38.32 189h-2.23v-35.43l-15.61 35.43h-2.4l-15.67-35.43v35.43h-2.17v-40.5h2.29l16.72 37.87 16.72-37.87h2.35z"/>
					</g>
					<g id="g52">
						<path id="path54" class="s0" d="m68.36 175.05l-5.4 13.95h-2.34l15.61-40.5h2.4l15.61 40.5h-2.34l-5.41-13.95zm9.04-23.58l-8.21 21.42h16.48z"/>
					</g>
					<g id="g56">
						<path id="path58" class="s0" d="m144.76 189h-2.17v-10.27c0-6.42-4.69-7.82-8.62-7.82h-15.08v18.09h-2.18v-40.5h17.14c7.51 0 12.15 4.31 12.15 11.2 0 4.85-2.64 8.52-6.81 10.16 3.58 1.34 5.57 4.37 5.57 8.87zm-0.99-29.3c0-5.72-3.58-9.05-9.92-9.05h-14.96v18.16h15.19c4.82 0 9.69-2.86 9.69-9.11z"/>
					</g>
					<g id="g60">
						<path id="path62" class="s0" d="m172.87 174v15h-2.17v-40.5h2.17v22.52l22.3-22.52h3.05l-15.49 15.58 18.02 24.92h-2.7l-16.85-23.35z"/>
					</g>
					<g id="g64">
						<path id="path66" class="s0" d="m224.69 166.7h22.23v2.1h-22.23v18.04h24.82v2.16h-26.99v-40.5h26.99v2.15h-24.82z"/>
					</g>
					<g id="g68">
						<path id="path70" class="s0" d="m285.6 150.65v38.35h-2.18v-38.35h-13.67v-2.15h29.58v2.15z"/>
					</g>
					<path id="path72" class="s0" d="m324.15 189h-2.17v-40.5h2.17z"/>
					<g id="g74">
						<path id="path76" class="s0" d="m383.18 189h-2.47l-27.22-37.24v37.24h-2.17v-40.5h2.46l27.23 37.23v-37.23h2.17z"/>
					</g>
					<g id="g78">
						<path id="path80" class="s0" d="m446.9 189h-2.17v-11.03c-2.93 7.23-9.33 11.73-17.54 11.73-11.1 0-20.13-9.46-20.13-21.13 0-11.61 9.03-21.07 20.13-21.07 9.03 0 16.02 5.08 18.89 13.48h-2.34c-2.7-7.06-8.75-11.32-16.55-11.32-9.92 0-17.96 8.52-17.96 18.91 0 10.51 8.04 18.97 17.96 18.97 9.62 0 16.6-7.01 17.48-17.16h-17.07v-2.16h19.3z"/>
					</g>
				</g>
			</g>
		</g>
	</g>
</svg>