<?xml version="1.0" encoding="UTF-8" standalone="no"?>
<svg
   xmlns:dc="http://purl.org/dc/elements/1.1/"
   xmlns:cc="http://creativecommons.org/ns#"
   xmlns:rdf="http://www.w3.org/1999/02/22-rdf-syntax-ns#"
   xmlns:svg="http://www.w3.org/2000/svg"
   xmlns="http://www.w3.org/2000/svg"
   viewBox="0 0 820.08801 530.64532"
   height="530.64532"
   width="820.08801"
   xml:space="preserve"
   id="svg2"
   version="1.1"><metadata
     id="metadata8"><rdf:RDF><cc:Work
         rdf:about=""><dc:format>image/svg+xml</dc:format><dc:type
           rdf:resource="http://purl.org/dc/dcmitype/StillImage" /></cc:Work></rdf:RDF></metadata><defs
     id="defs6"><clipPath
       id="clipPath18"
       clipPathUnits="userSpaceOnUse"><path
         id="path16"
         d="M 0,397.984 H 615.066 V 0 H 0 Z" /></clipPath></defs><g
     transform="matrix(1.3333333,0,0,-1.3333333,0,530.64533)"
     id="g10"><g
       id="g12"><g
         clip-path="url(#clipPath18)"
         id="g14"><g
           transform="translate(383.6709,258.9687)"
           id="g20"><path
             id="path22"
             style="fill:#ffffff;fill-opacity:1;fill-rule:nonzero;stroke:none"
             d="m 0,0 c 0.137,4.916 3.414,8.212 8.369,8.27 4.955,0.057 7.657,-3.958 8.169,-8.558 0.512,-4.601 3.445,-8.614 8.301,-8.506 4.856,0.108 6.234,4.479 4.168,8.762 -2.065,4.285 -1.185,8.812 3.64,10.546 4.825,1.735 9.25,-0.489 11.013,-4.945 1.763,-4.456 -0.189,-9.115 -4.164,-11.615 -3.974,-2.5 -5.771,-5.902 -5.792,-10.831 -0.02,-4.93 -3.558,-8.558 -8.468,-8.561 -4.911,-0.003 -8.35,-1.486 -10.705,-5.661 -2.355,-4.176 -6.748,-5.995 -11.305,-4.346 -4.56,1.649 -6.635,5.943 -5.153,10.71 1.482,4.767 6.076,5.798 10.305,4.072 4.227,-1.727 8.7,-0.794 8.753,4.109 0.054,4.902 -4.08,7.71 -8.654,8.224 C 3.902,-7.815 -0.136,-4.915 0,0" /></g><g
           transform="translate(529.6982,139.7685)"
           id="g24"><path
             id="path26"
             style="fill:#ffffff;fill-opacity:1;fill-rule:nonzero;stroke:none"
             d="m 0,0 c -0.137,-4.916 -3.414,-8.212 -8.369,-8.27 -4.955,-0.057 -7.657,3.958 -8.169,8.558 -0.512,4.601 -3.445,8.613 -8.301,8.506 -4.856,-0.108 -6.234,-4.479 -4.168,-8.763 2.065,-4.284 1.185,-8.81 -3.64,-10.546 -4.825,-1.734 -9.25,0.491 -11.013,4.946 -1.763,4.456 0.189,9.116 4.164,11.616 3.974,2.499 5.771,5.901 5.792,10.83 0.02,4.93 3.558,8.559 8.468,8.561 4.911,0.002 8.35,1.487 10.705,5.661 2.355,4.175 6.748,5.996 11.305,4.345 4.56,-1.648 6.635,-5.942 5.154,-10.709 -1.483,-4.767 -6.077,-5.798 -10.306,-4.072 -4.227,1.728 -8.7,0.794 -8.753,-4.109 -0.054,-4.902 4.08,-7.71 8.654,-8.225 C -3.902,7.814 0.136,4.915 0,0" /></g><g
           transform="translate(529.3896,239.2446)"
           id="g28"><path
             id="path30"
             style="fill:#ffffff;fill-opacity:1;fill-rule:nonzero;stroke:none"
             d="m 0,0 c -4.256,0 -7.731,3.415 -7.731,7.73 0,4.256 3.475,7.731 7.731,7.731 4.256,0 7.729,-3.475 7.729,-7.731 C 7.729,3.415 4.256,0 0,0 M 51.249,-1.432 C 47.004,3.254 38.883,7.841 29.5,11.966 c -7.821,3.445 -3.175,9.624 -24.654,9.133 -14.35,4.556 -31.703,4.095 -34.046,4.095 -5.258,0 -17.845,-0.049 -22.892,-0.891 -0.591,-0.1 -1.021,-0.16 -1.342,-0.19 0.121,-0.07 -0.2,-0.31 -1.852,-0.891 -5.367,-1.843 -10.525,-4.266 -15.411,-7.15 -1.733,-0.891 -3.365,-1.893 -4.947,-2.994 -3.725,-2.474 -7.24,-5.207 -10.514,-8.151 -2.624,-2.263 -5.047,-4.687 -7.31,-7.31 -2.985,-3.255 -5.728,-6.779 -8.132,-10.515 -1.111,-1.572 -2.172,-3.254 -3.064,-4.936 -2.884,-4.897 -5.257,-10.094 -7.14,-15.461 -1.782,-4.937 -3.103,-10.155 -3.995,-15.452 -0.851,-5.046 -1.322,-10.204 -1.322,-15.461 v -46.374 h 59.571 c 0.732,5.047 1.322,10.205 1.733,15.412 0.371,5.157 0.531,10.304 0.531,15.501 v 15.461 c 0,2.884 0.283,14.797 3.585,17.754 3.303,2.957 20.437,5.028 28.008,6.69 32.655,2.303 44.171,10.203 52.612,10.754 2.353,0.031 15.792,-2.262 22.04,6.929 0.481,0.702 0.972,2.244 1.402,4.086 0.111,0.481 -0.56,1.542 -1.011,1.573 -4.226,0.29 -8.452,0.6 -12.677,0.931 -7.871,0.621 -15.732,1.282 -23.593,2.173 -7.841,0.791 -15.821,2.523 -22.761,6.428 -0.871,0.451 -1.743,0.922 -2.643,1.272 -0.902,0.361 -1.843,0.631 -2.794,0.862 -1.893,0.47 -3.846,0.811 -5.798,0.891 -0.981,0.07 -1.943,-0.04 -2.904,-0.26 -0.961,-0.211 -1.923,-0.441 -2.865,-0.702 -1.892,-0.55 -3.825,-1.051 -5.597,-1.892 1.762,0.891 3.675,1.431 5.548,2.032 0.961,0.281 1.902,0.541 2.864,0.782 0.951,0.24 1.963,0.38 2.964,0.34 1.982,-0.04 3.955,-0.331 5.897,-0.751 0.962,-0.23 1.923,-0.48 2.864,-0.821 0.952,-0.35 1.853,-0.791 2.734,-1.232 6.979,-3.695 14.78,-5.187 22.621,-5.778 7.831,-0.701 15.702,-1.161 23.572,-1.582 4.347,-0.23 8.702,-0.44 13.059,-0.631 0.41,-0.019 1.382,0.751 1.441,1.152 0.421,2.624 0.681,5.066 0.681,6.208 0,2.604 -0.881,3.576 -2.714,5.568" /></g><g
           transform="translate(101.3096,210.81)"
           id="g32"><path
             id="path34"
             style="fill:#ffffff;fill-opacity:1;fill-rule:nonzero;stroke:none"
             d="M 0,0 V 0.222 H 23.606 V 0 C 21.792,0 20.236,-0.648 18.941,-1.944 17.645,-3.241 16.997,-4.795 16.997,-6.61 V -37.603 L 6.61,-30.382 v 8.608 c -1.334,-2.74 -3.193,-5.369 -5.583,-7.887 -2.387,-2.518 -5.406,-4.601 -9.052,-6.249 -3.649,-1.646 -8.12,-2.471 -13.414,-2.471 -6.408,0 -12.536,1.158 -18.386,3.471 -5.851,2.314 -11.072,5.638 -15.663,9.97 -4.593,4.407 -8.092,9.397 -10.498,14.97 -2.409,5.572 -3.611,11.432 -3.611,17.58 0,6.146 1.202,12.006 3.611,17.579 2.406,5.573 5.905,10.544 10.498,14.914 4.591,4.406 9.766,7.813 15.524,10.22 5.758,2.406 11.933,3.499 18.525,3.278 8.478,-0.372 15.209,-0.409 20.189,-0.112 4.98,0.296 9.582,0.889 13.804,1.778 L 13.831,35.66 h -0.333 c -1.334,2.221 -2.777,4.137 -4.333,5.748 -1.555,1.612 -3.675,3.222 -6.36,4.833 -2.685,1.611 -6.008,2.98 -9.97,4.11 -3.962,1.129 -8.721,1.694 -14.274,1.694 -6.408,0 -11.99,-1.167 -16.748,-3.499 -4.758,-2.333 -8.692,-5.536 -11.803,-9.609 -3.11,-4.075 -5.434,-8.804 -6.97,-14.192 -1.538,-5.388 -2.306,-11.137 -2.306,-17.246 0,-6.147 0.768,-11.897 2.306,-17.247 1.536,-5.351 3.86,-10.053 6.97,-14.108 3.111,-4.055 7.045,-7.23 11.803,-9.526 4.758,-2.296 10.34,-3.444 16.748,-3.444 6.516,0 12.144,1.592 16.885,4.777 4.74,3.184 8.461,7.628 11.164,13.331 V -6.61 c 0,1.815 -0.648,3.369 -1.944,4.666 C 3.407,-0.648 1.852,0 0,0" /></g><g
           transform="translate(192.5703,194.2441)"
           id="g36"><path
             id="path38"
             style="fill:#ffffff;fill-opacity:1;fill-rule:nonzero;stroke:none"
             d="m 0,0 -1.566,-17.874 -0.002,-2.461 -58.158,0.04 c 2.461,0.647 4.926,5.566 4.931,13.079 l 0.045,64.505 c 0.005,7.513 -2.452,12.436 -4.912,13.086 l 58.157,-0.041 -0.002,-2.46 1.542,-17.877 c -2.584,9.717 -10.997,17.883 -24.079,17.892 l -18.523,0.013 -0.029,-41.708 11.787,-0.008 c 9.067,-0.007 14.899,4.912 15.549,7.372 L -15.272,16.46 c -0.646,2.461 -6.471,7.388 -15.539,7.394 l -11.787,0.009 -0.029,-41.709 18.523,-0.012 C -11.021,-17.868 -2.597,-9.713 0,0" /></g><g
           transform="translate(271.5195,177.372)"
           id="g40"><path
             id="path42"
             style="fill:#ffffff;fill-opacity:1;fill-rule:nonzero;stroke:none"
             d="M 0,0 C 2.258,-2.148 4.813,-3.222 7.665,-3.222 V -3.443 H 3.444 -5.888 c -0.741,0 -1.5,0.073 -2.277,0.221 -2.332,0.482 -4.407,1.612 -6.221,3.389 l -37.993,37.826 -1.166,1.166 9.332,4.833 c 2.739,1.332 5.072,2.489 6.998,3.471 1.925,0.98 3.806,1.953 5.638,2.916 1.833,0.962 3.306,1.759 4.416,2.389 7.701,4.702 12.59,9.961 14.663,15.774 2.074,5.813 2.296,12.034 0.667,18.663 h 10.665 c 0,-5.592 -0.797,-10.434 -2.389,-14.525 -1.592,-4.092 -3.796,-7.591 -6.609,-10.498 -2.815,-2.907 -6.092,-5.379 -9.832,-7.415 -1.741,-0.963 -3.888,-2.102 -6.443,-3.416 -2.555,-1.315 -5.091,-2.62 -7.61,-3.915 -2.518,-1.297 -5.517,-2.815 -8.998,-4.556 z m -53.989,3.444 c 0,-1.852 0.647,-3.425 1.944,-4.721 1.296,-1.297 2.851,-1.945 4.666,-1.945 v -0.221 h -23.606 v 0.221 c 1.85,0 3.424,0.648 4.721,1.945 1.295,1.296 1.944,2.869 1.944,4.721 v 76.929 c 0,1.814 -0.649,3.369 -1.944,4.666 -1.297,1.295 -2.871,1.943 -4.721,1.943 v 0.223 h 23.606 v -0.223 c -1.815,0 -3.37,-0.648 -4.666,-1.943 -1.297,-1.297 -1.944,-2.852 -1.944,-4.666 z" /></g><g
           transform="translate(288.2549,213.4082)"
           id="g44"><path
             id="path46"
             style="fill:#ffffff;fill-opacity:1;fill-rule:nonzero;stroke:none"
             d="m 0,0 c 1.207,-6.817 3.041,-12.73 5.501,-17.733 2.459,-5.006 5.327,-9.126 8.607,-12.363 3.279,-3.235 6.817,-5.652 10.616,-7.248 3.796,-1.598 7.591,-2.394 11.39,-2.394 4.66,0 9.104,1.12 13.332,3.365 4.228,2.243 7.81,5.544 10.744,9.902 2.932,4.357 5.004,9.729 6.213,16.116 1.208,6.385 1.078,13.721 -0.387,22.005 -1.21,6.816 -3.065,12.727 -5.567,17.733 -2.504,5.004 -5.372,9.147 -8.607,12.427 -3.238,3.279 -6.754,5.716 -10.55,7.314 -3.799,1.595 -7.595,2.394 -11.391,2.394 -4.66,0 -9.106,-1.144 -13.333,-3.43 C 12.339,45.8 8.758,42.477 5.824,38.121 2.89,33.762 0.818,28.391 -0.389,22.005 -1.599,15.618 -1.469,8.285 0,0 m 78.83,5.825 c 0,-7.853 -1.316,-14.736 -3.948,-20.646 -2.634,-5.911 -6.084,-10.83 -10.356,-14.756 -4.271,-3.928 -9.17,-6.883 -14.691,-8.867 -5.523,-1.984 -11.132,-2.977 -16.828,-2.977 -5.695,0 -11.305,0.993 -16.826,2.977 -5.525,1.984 -10.421,4.939 -14.693,8.867 -4.271,3.926 -7.723,8.845 -10.355,14.756 -2.634,5.91 -3.948,12.793 -3.948,20.646 0,7.938 1.314,14.842 3.948,20.711 2.632,5.867 6.084,10.786 10.355,14.756 4.272,3.968 9.168,6.925 14.693,8.867 5.521,1.942 11.131,2.913 16.826,2.913 5.696,0 11.305,-0.971 16.828,-2.913 5.521,-1.942 10.42,-4.899 14.691,-8.867 4.272,-3.97 7.722,-8.889 10.356,-14.756 2.632,-5.869 3.948,-12.773 3.948,-20.711" /></g><g
           transform="translate(60.3076,128.4375)"
           id="g48"><path
             id="path50"
             style="fill:#ffffff;fill-opacity:1;fill-rule:nonzero;stroke:none"
             d="M 0,0 H -1.675 V 26.597 L -13.395,0 H -15.2 L -26.964,26.597 V 0 h -1.631 v 30.408 h 1.719 L -14.318,1.97 -1.764,30.408 H 0 Z" /></g><g
           transform="translate(89.6494,156.6123)"
           id="g52"><path
             id="path54"
             style="fill:#ffffff;fill-opacity:1;fill-rule:nonzero;stroke:none"
             d="M 0,0 -6.167,-16.081 H 6.212 Z m -6.784,-17.703 -4.055,-10.472 H -12.6 L -0.88,2.233 h 1.805 l 11.721,-30.408 h -1.762 l -4.055,10.472 z" /></g><g
           transform="translate(139.4795,150.4336)"
           id="g56"><path
             id="path58"
             style="fill:#ffffff;fill-opacity:1;fill-rule:nonzero;stroke:none"
             d="M 0,0 C 0,4.294 -2.687,6.793 -7.444,6.793 H -18.68 V -6.836 H -7.269 C -3.656,-6.836 0,-4.688 0,0 M 0.749,-21.996 H -0.88 v 7.71 c 0,4.822 -3.525,5.872 -6.476,5.872 H -18.68 v -13.582 h -1.631 V 8.412 h 12.867 c 5.639,0 9.119,-3.241 9.119,-8.412 0,-3.638 -1.982,-6.397 -5.111,-7.625 2.689,-1.008 4.185,-3.285 4.185,-6.661 z" /></g><g
           transform="translate(161.332,139.6982)"
           id="g60"><path
             id="path62"
             style="fill:#ffffff;fill-opacity:1;fill-rule:nonzero;stroke:none"
             d="M 0,0 V -11.261 H -1.628 V 19.147 H 0 V 2.233 l 16.743,16.914 h 2.291 L 7.403,7.448 20.93,-11.261 H 18.902 L 6.257,6.267 Z" /></g><g
           transform="translate(200.2363,145.1758)"
           id="g64"><path
             id="path66"
             style="fill:#ffffff;fill-opacity:1;fill-rule:nonzero;stroke:none"
             d="M 0,0 H 16.698 V -1.578 H 0 v -13.541 h 18.638 v -1.619 H -1.629 V 13.67 H 18.638 V 12.051 L 0,12.051 Z" /></g><g
           transform="translate(245.9697,157.2265)"
           id="g68"><path
             id="path70"
             style="fill:#ffffff;fill-opacity:1;fill-rule:nonzero;stroke:none"
             d="M 0,0 V -28.789 H -1.631 V 0 H -11.896 V 1.619 H 10.31 L 10.31,0 Z" /></g><path
           id="path72"
           style="fill:#ffffff;fill-opacity:1;fill-rule:nonzero;stroke:none"
           d="m 274.915,128.437 h -1.629 v 30.408 h 1.629 z" /><g
           transform="translate(319.2373,128.4375)"
           id="g74"><path
             id="path76"
             style="fill:#ffffff;fill-opacity:1;fill-rule:nonzero;stroke:none"
             d="M 0,0 H -1.849 L -22.293,27.956 V 0 h -1.629 v 30.408 h 1.849 L -1.628,2.452 V 30.408 H 0 Z" /></g><g
           transform="translate(367.085,128.4375)"
           id="g78"><path
             id="path80"
             style="fill:#ffffff;fill-opacity:1;fill-rule:nonzero;stroke:none"
             d="m 0,0 h -1.631 v 8.28 c -2.202,-5.433 -7.004,-8.806 -13.172,-8.806 -8.329,0 -15.112,7.098 -15.112,15.862 0,8.719 6.783,15.817 15.112,15.817 6.785,0 12.029,-3.811 14.186,-10.121 h -1.761 c -2.027,5.302 -6.565,8.5 -12.425,8.5 -7.447,0 -13.483,-6.396 -13.483,-14.196 0,-7.889 6.036,-14.24 13.483,-14.24 7.226,0 12.469,5.258 13.128,12.881 h -12.82 v 1.622 l 14.495,0 z" /></g></g></g></g></svg>