<svg xmlns="http://www.w3.org/2000/svg" width="741" height="150" viewBox="0 0 741 150"><defs><clipPath id="cp1" clipPathUnits="userSpaceOnUse"><path d="M-39-190h819.17v530.06H-39z"/></clipPath></defs><style>.s0{fill:#fff}</style><g id="Clip-Path" clip-path="url(#cp1)"><path d="M535.14 12.2c.14-5.05 3.51-8.45 8.61-8.51 5.1-.05 7.88 4.08 8.41 8.81s3.54 8.86 8.54 8.75 6.42-4.61 4.29-9.01c-2.13-4.41-1.22-9.07 3.75-10.85 4.96-1.79 9.51.5 11.33 5.08 1.81 4.59-.2 9.38-4.29 11.96-4.09 2.57-5.94 6.07-5.96 11.14s-3.66 8.81-8.71 8.81-8.59 1.53-11.02 5.82c-2.42 4.3-6.94 6.17-11.63 4.47-4.69-1.69-6.83-6.11-5.3-11.01 1.52-4.91 6.25-5.97 10.6-4.19 4.35 1.77 8.95.81 9.01-4.23.06-5.05-4.2-7.94-8.9-8.46-4.71-.53-8.87-3.52-8.73-8.58M685.4 134.86c-.14 5.06-3.51 8.45-8.61 8.51s-7.88-4.07-8.41-8.81c-.52-4.73-3.54-8.86-8.54-8.75s-6.41 4.61-4.29 9.02c2.13 4.4 1.22 9.06-3.74 10.85-4.97 1.78-9.52-.51-11.34-5.09-1.81-4.59.2-9.38 4.29-11.95 4.09-2.58 5.94-6.08 5.96-11.15s3.66-8.8 8.71-8.81c5.06 0 8.59-1.53 11.02-5.82 2.42-4.3 6.94-6.17 11.63-4.47 4.69 1.69 6.83 6.11 5.3 11.02-1.52 4.9-6.25 5.96-10.6 4.19-4.35-1.78-8.95-.82-9.01 4.22-.05 5.05 4.2 7.94 8.91 8.47 4.7.53 8.86 3.51 8.72 8.57" class="s0"/><path d="M737.82 33.97c-4.37-4.82-12.73-9.54-22.38-13.78-8.05-3.55-3.27-9.91-25.37-9.4-14.77-4.69-32.62-4.21-35.03-4.21-5.41 0-18.37.05-23.56.91l-.34.06q-.17.03-.35.05-.17.03-.34.05l-.35.04c.12.07-.21.32-1.9.91-5.53 1.9-10.84 4.39-15.86 7.36q-.66.34-1.31.71-.65.36-1.29.75-.64.38-1.26.79t-1.23.83q-1.43.95-2.82 1.95t-2.75 2.05q-1.35 1.05-2.66 2.15-1.32 1.09-2.59 2.24-1.01.87-1.98 1.78-.98.9-1.92 1.84t-1.85 1.92q-.91.97-1.77 1.98-1.16 1.26-2.27 2.57-1.1 1.31-2.15 2.66-1.04 1.36-2.03 2.76-.99 1.39-1.92 2.83-.43.61-.85 1.23-.41.63-.81 1.26-.39.64-.77 1.28-.37.65-.72 1.31c-2.97 5.04-5.41 10.39-7.35 15.91-1.83 5.08-3.19 10.45-4.11 15.9q-.34 1.97-.59 3.95t-.42 3.97q-.17 2-.26 3.99-.09 2-.09 4v47.71h61.3q.28-1.97.54-3.95.25-1.98.48-3.96.22-1.98.41-3.97.19-1.98.35-3.97c.38-5.31.55-10.6.55-15.95V98.57c0-2.97.29-15.23 3.68-18.27 3.4-3.04 21.03-5.17 28.82-6.88 33.6-2.37 45.45-10.5 54.14-11.07 2.42-.03 16.25 2.33 22.68-7.13.49-.72 1-2.31 1.44-4.2.11-.5-.58-1.59-1.04-1.62q-6.52-.45-13.04-.96c-8.1-.64-16.19-1.32-24.28-2.24-8.07-.81-16.28-2.59-23.42-6.61-.9-.46-1.79-.95-2.72-1.31q-1.4-.54-2.88-.89c-1.94-.48-3.95-.83-5.96-.91-1.01-.08-2 .04-2.99.27l-.74.16-.74.18q-.37.09-.73.18l-.74.2c-1.94.56-3.93 1.08-5.76 1.94 1.82-.91 3.78-1.47 5.71-2.09q1.47-.43 2.95-.8c.98-.25 2.02-.39 3.05-.35 2.04.04 4.07.34 6.07.77.99.24 1.98.5 2.94.85.98.36 1.91.81 2.82 1.26 7.18 3.8 15.2 5.34 23.27 5.95 8.06.72 16.16 1.19 24.26 1.63q6.71.35 13.44.65c.42.02 1.42-.78 1.48-1.19.43-2.7.7-5.21.7-6.39 0-2.68-.91-3.68-2.79-5.73m-52.74-1.47q-1.58 0-3.05-.6-1.46-.61-2.58-1.72-1.12-1.12-1.72-2.59-.6-1.46-.6-3.04c0-4.38 3.57-7.96 7.95-7.96s7.96 3.58 7.96 7.96q0 1.58-.6 3.04-.61 1.46-1.73 2.59-1.12 1.11-2.58 1.72-1.46.6-3.05.6M107.9 89.4v-.34h36.41v.34q-4.2 0-7.2 3-2.99 3-2.99 7.2v47.8l-16.02-11.14v-13.28q-3.09 6.34-8.61 12.17-5.53 5.82-13.97 9.63-8.43 3.82-20.68 3.82-14.83 0-28.36-5.36-13.53-5.35-24.16-15.37-10.62-10.2-16.19-23.09T.56 77.67t5.57-27.12q5.57-12.89 16.19-23 10.63-10.19 23.95-15.76t28.57-5.05q19.61.85 31.13.17 11.52-.69 21.29-2.75l1.97 30.25h-.51q-3.08-5.15-6.68-8.87-3.6-3.73-9.81-7.45-6.21-3.73-15.38-6.34-9.17-2.62-22.01-2.62-14.83 0-25.83 5.4Q38 19.93 30.8 29.35q-7.19 9.42-10.75 21.89-3.55 12.46-3.55 26.6 0 14.22 3.55 26.6 3.56 12.38 10.75 21.76 7.2 9.38 18.21 14.69t25.83 5.31q15.07 0 26.04-7.37 10.96-7.36 17.22-20.56V99.6q0-4.2-3-7.2-2.91-3-7.2-3M248.65 114.95l-2.41 27.57-.01 3.79-89.69-.06c3.8-.99 7.6-8.58 7.6-20.17l.07-99.48c.01-11.59-3.78-19.18-7.57-20.18l89.69.06v3.79l2.38 27.57c-3.99-14.98-16.96-27.58-37.14-27.59L183 10.23l-.04 64.32 18.18.02c13.98.01 22.97-7.58 23.98-11.37l-.02 26.37c-1-3.8-9.98-11.4-23.97-11.41l-18.17-.01-.05 64.33 28.57.02c20.17.01 33.17-12.57 37.17-27.55M370.41 140.97q5.23 4.97 11.82 4.97v.34h-20.9q-1.71 0-3.51-.34-5.4-1.11-9.59-5.22l-58.6-58.34-1.8-1.8 14.39-7.45q2.46-1.19 4.91-2.4 2.44-1.22 4.88-2.45t4.86-2.48q2.43-1.25 4.84-2.52.86-.45 1.72-.91.85-.45 1.7-.91t1.7-.93q.85-.46 1.69-.94 17.82-10.88 22.62-24.33t1.03-28.78h16.44q0 12.94-3.68 22.4-3.68 9.47-10.19 16.19-6.51 6.73-15.17 11.44-1.23.67-2.47 1.34-1.23.67-2.48 1.33-1.24.66-2.48 1.31-1.25.65-2.5 1.29l-11.74 6.03-3.46 1.78q-1.73.88-3.47 1.76-1.73.88-3.47 1.75l-3.48 1.74zm-83.27-5.31q0 4.28 3 7.28t7.2 3v.34h-36.41v-.34q4.28 0 7.28-3t3-7.28V17.01q0-4.19-3-7.19t-7.28-3v-.34h36.41v.34q-4.2 0-7.2 3t-3 7.19z" class="s0"/><path d="M517.8 76.41q0 18.17-6.09 31.84-6.09 13.68-15.97 22.76-9.88 9.09-22.66 13.68t-25.95 4.59q-13.18 0-25.95-4.59-12.78-4.59-22.66-13.68-9.88-9.08-15.97-22.76-6.09-13.67-6.09-31.84 0-18.36 6.09-31.94 6.09-13.57 15.97-22.76 9.88-9.18 22.66-13.67 12.77-4.5 25.95-4.5 13.17 0 25.95 4.5 12.78 4.49 22.66 13.67 9.88 9.19 15.97 22.76 6.09 13.58 6.09 31.94M396.22 85.4q2.8 15.77 8.49 27.35 5.69 11.57 13.27 19.06 7.59 7.49 16.37 11.18 8.78 3.7 17.57 3.69 10.78 0 20.56-5.19t16.57-15.27 9.59-24.85q2.79-14.78-.6-33.94-2.8-15.77-8.59-27.35t-13.27-19.17q-7.49-7.58-16.27-11.28-8.79-3.69-17.57-3.69-10.78 0-20.56 5.29-9.79 5.29-16.57 15.37-6.79 10.09-9.59 24.86-2.79 14.77.6 33.94" class="s0"/></g></svg>