<?xml version="1.0" encoding="UTF-8" standalone="no"?>
<svg
   xmlns:dc="http://purl.org/dc/elements/1.1/"
   xmlns:cc="http://creativecommons.org/ns#"
   xmlns:rdf="http://www.w3.org/1999/02/22-rdf-syntax-ns#"
   xmlns:svg="http://www.w3.org/2000/svg"
   xmlns="http://www.w3.org/2000/svg"
   viewBox="0 0 820.08801 530.64532"
   height="530.64532"
   width="820.08801"
   xml:space="preserve"
   id="svg2"
   version="1.1"><metadata
     id="metadata8"><rdf:RDF><cc:Work
         rdf:about=""><dc:format>image/svg+xml</dc:format><dc:type
           rdf:resource="http://purl.org/dc/dcmitype/StillImage" /></cc:Work></rdf:RDF></metadata><defs
     id="defs6"><clipPath
       id="clipPath18"
       clipPathUnits="userSpaceOnUse"><path
         id="path16"
         d="M 0,397.984 H 615.066 V 0 H 0 Z" /></clipPath></defs><g
     transform="matrix(1.3333333,0,0,-1.3333333,0,530.64533)"
     id="g10"><g
       id="g12"><g
         clip-path="url(#clipPath18)"
         id="g14"><g
           transform="translate(120.8047,311.8172)"
           id="g20"><path
             id="path22"
             style="fill:#6b2d7c;fill-opacity:1;fill-rule:nonzero;stroke:none"
             d="m 0,0 c 0.258,9.306 6.462,15.545 15.842,15.654 9.381,0.11 14.497,-7.491 15.465,-16.199 0.967,-8.709 6.521,-16.306 15.714,-16.102 9.192,0.205 11.8,8.479 7.89,16.587 -3.909,8.111 -2.244,16.68 6.891,19.964 9.133,3.283 17.51,-0.927 20.846,-9.362 C 85.986,2.107 82.29,-6.713 74.767,-11.446 67.244,-16.178 63.841,-22.618 63.802,-31.948 63.763,-41.281 57.067,-48.149 47.771,-48.156 38.477,-48.16 31.965,-50.969 27.507,-58.871 23.049,-66.775 14.733,-70.22 6.104,-67.098 c -8.63,3.121 -12.557,11.25 -9.752,20.274 2.804,9.025 11.503,10.977 19.506,7.708 8.004,-3.269 16.47,-1.503 16.572,7.779 0.1,9.279 -7.726,14.595 -16.383,15.569 C 7.387,-14.793 -0.258,-9.304 0,0" /></g><g
           transform="translate(397.2363,86.1692)"
           id="g24"><path
             id="path26"
             style="fill:#6b2d7c;fill-opacity:1;fill-rule:nonzero;stroke:none"
             d="m 0,0 c -0.258,-9.306 -6.462,-15.545 -15.843,-15.654 -9.38,-0.11 -14.496,7.491 -15.464,16.198 -0.967,8.71 -6.521,16.307 -15.714,16.103 -9.192,-0.205 -11.801,-8.479 -7.89,-16.587 3.909,-8.111 2.243,-16.68 -6.891,-19.964 -9.133,-3.283 -17.51,0.927 -20.847,9.362 -3.337,8.435 0.359,17.255 7.881,21.988 7.524,4.732 10.927,11.172 10.966,20.502 0.039,9.333 6.735,16.201 16.03,16.207 9.295,0.005 15.807,2.814 20.265,10.716 4.458,7.904 12.773,11.349 21.402,8.227 C 2.526,63.977 6.453,55.848 3.648,46.824 0.844,37.799 -7.855,35.847 -15.858,39.116 c -8.004,3.269 -16.47,1.502 -16.572,-7.779 -0.1,-9.279 7.726,-14.595 16.383,-15.569 C -7.387,14.793 0.258,9.304 0,0" /></g><g
           transform="translate(396.6514,274.4793)"
           id="g28"><path
             id="path30"
             style="fill:#6b2d7c;fill-opacity:1;fill-rule:nonzero;stroke:none"
             d="m 0,0 c -8.056,0 -14.635,6.463 -14.635,14.634 0,8.056 6.579,14.634 14.635,14.634 8.057,0 14.634,-6.578 14.634,-14.634 C 14.634,6.463 8.057,0 0,0 M 97.017,-2.711 C 88.98,6.161 73.607,14.843 55.845,22.652 41.04,29.174 49.836,40.87 9.175,39.94 c -27.164,8.625 -60.016,7.753 -64.451,7.753 -9.953,0 -33.78,-0.094 -43.333,-1.687 -1.12,-0.189 -1.934,-0.303 -2.541,-0.36 0.227,-0.133 -0.379,-0.587 -3.506,-1.687 -10.161,-3.487 -19.924,-8.076 -29.174,-13.535 -3.279,-1.687 -6.369,-3.583 -9.364,-5.667 -7.052,-4.683 -13.705,-9.858 -19.905,-15.431 -4.966,-4.284 -9.553,-8.871 -13.837,-13.838 -5.65,-6.161 -10.843,-12.833 -15.392,-19.904 -2.106,-2.976 -4.113,-6.161 -5.801,-9.345 -5.46,-9.27 -9.952,-19.108 -13.517,-29.268 -3.374,-9.346 -5.875,-19.222 -7.563,-29.25 -1.611,-9.554 -2.502,-19.316 -2.502,-29.268 v -87.786 h 112.77 c 1.383,9.554 2.502,19.316 3.279,29.174 0.702,9.762 1.006,19.506 1.006,29.344 v 29.268 c 0,5.459 0.535,28.011 6.786,33.609 6.252,5.598 38.688,9.516 53.019,12.663 61.817,4.36 83.616,19.317 99.596,20.359 4.455,0.057 29.894,-4.284 41.722,13.117 0.911,1.327 1.84,4.247 2.655,7.735 0.208,0.909 -1.061,2.919 -1.915,2.976 -7.999,0.55 -15.999,1.137 -23.998,1.762 -14.9,1.176 -29.78,2.428 -44.661,4.114 -14.843,1.497 -29.951,4.777 -43.087,12.17 -1.649,0.853 -3.299,1.744 -5.005,2.408 -1.706,0.682 -3.488,1.194 -5.288,1.63 -3.583,0.89 -7.279,1.535 -10.977,1.687 -1.857,0.132 -3.676,-0.076 -5.497,-0.493 -1.819,-0.398 -3.638,-0.834 -5.422,-1.328 -3.582,-1.042 -7.24,-1.989 -10.595,-3.582 3.337,1.687 6.956,2.711 10.502,3.848 1.819,0.532 3.6,1.024 5.422,1.479 1.799,0.455 3.714,0.72 5.61,0.644 3.753,-0.075 7.487,-0.625 11.165,-1.421 1.819,-0.436 3.64,-0.91 5.422,-1.555 1.801,-0.663 3.506,-1.497 5.174,-2.331 13.213,-6.995 27.98,-9.819 42.823,-10.939 14.823,-1.326 29.723,-2.198 44.622,-2.994 8.227,-0.436 16.473,-0.834 24.719,-1.195 0.777,-0.037 2.616,1.422 2.729,2.181 0.797,4.966 1.289,9.591 1.289,11.752 0,4.929 -1.668,6.768 -5.137,10.54" /></g></g></g></g></svg>